<?xml version="1.0" encoding="UTF-8"?>
<svg width="110px" height="38px" viewBox="0 0 110 38" version="1.1" xmlns="http://www.w3.org/2000/svg" xmlns:xlink="http://www.w3.org/1999/xlink">
    <!-- Generator: Sketch 52.6 (67491) - http://www.bohemiancoding.com/sketch -->
    <title>echopig_source</title>
    <desc>Created with Sketch.</desc>
    <g id="echopig_source" stroke="none" stroke-width="1" fill="none" fill-rule="evenodd">
        <path d="M7.322,34.253 C9.641,34.253 11.363,33.344 12.559,31.861 L10.478,30.02 C9.474,30.953 8.589,31.335 7.37,31.335 C5.744,31.335 4.596,30.474 4.237,28.824 L13.157,28.824 C13.18,28.489 13.204,28.155 13.204,27.868 C13.204,24.233 11.243,20.909 6.963,20.909 C3.232,20.909 0.626,23.922 0.626,27.581 L0.626,27.629 C0.626,31.551 3.472,34.253 7.322,34.253 Z M57.07,13.769 C59.176,13.769 61.122,14.475 62.683,15.666 L60.961,18.648 C59.929,17.733 58.567,17.178 57.07,17.178 C55.577,17.178 54.215,17.735 53.18,18.652 L51.454,15.662 C53.013,14.475 54.96,13.769 57.07,13.769 Z M64.211,13.019 L65.922,10.056 C63.401,8.334 60.352,7.327 57.069,7.327 C53.786,7.327 50.738,8.334 48.217,10.056 L49.928,13.019 C51.942,11.582 54.407,10.736 57.069,10.736 C59.732,10.736 62.197,11.582 64.211,13.019 Z M67.442,7.422 L69.15,4.465 C65.675,2.201 61.525,0.885 57.069,0.885 C52.613,0.885 48.464,2.201 44.989,4.465 L46.697,7.422 C49.667,5.446 53.234,4.294 57.069,4.294 C60.905,4.294 64.472,5.446 67.442,7.422 Z M60.332,26.024 L62.679,26.024 C63.662,26.024 64.466,26.828 64.466,27.811 C64.466,28.794 63.662,29.598 62.679,29.598 L60.332,29.598 C59.35,29.598 58.545,28.794 58.545,27.811 C58.545,26.828 59.35,26.024 60.332,26.024 Z M52.878,26.024 L55.225,26.024 C56.207,26.024 57.012,26.828 57.012,27.811 C57.012,28.794 56.207,29.598 55.225,29.598 L52.878,29.598 C51.895,29.598 51.091,28.794 51.091,27.811 C51.091,26.828 51.895,26.024 52.878,26.024 Z M52.743,20.29 L62.814,20.29 C64.884,20.29 66.765,21.136 68.127,22.498 C69.489,23.86 70.335,25.74 70.335,27.811 C70.335,29.882 69.489,31.762 68.127,33.124 C66.765,34.487 64.884,35.332 62.814,35.332 L52.743,35.332 C50.672,35.332 48.792,34.487 47.43,33.124 C46.067,31.762 45.222,29.882 45.222,27.811 C45.222,25.741 46.067,23.86 47.429,22.498 C48.792,21.136 50.672,20.29 52.743,20.29 Z M62.814,23.978 L52.743,23.978 C51.691,23.978 50.733,24.41 50.038,25.106 C49.342,25.801 48.91,26.759 48.91,27.811 C48.91,28.863 49.342,29.821 50.038,30.517 C50.733,31.212 51.691,31.644 52.743,31.644 L62.814,31.644 C63.865,31.644 64.824,31.212 65.519,30.517 C66.214,29.821 66.646,28.863 66.646,27.811 C66.646,26.759 66.214,25.801 65.519,25.106 C64.824,24.41 63.866,23.978 62.814,23.978 Z M73.012,37.792 L76.647,37.792 L76.647,32.292 C77.508,33.32 78.703,34.205 80.64,34.205 C83.677,34.205 86.475,31.861 86.475,27.581 L86.475,27.533 C86.475,23.252 83.629,20.909 80.64,20.909 C78.751,20.909 77.532,21.794 76.647,22.99 L76.647,21.148 L73.012,21.148 L73.012,37.792 Z M79.707,31.12 C78.01,31.12 76.599,29.709 76.599,27.581 L76.599,27.533 C76.599,25.405 78.01,23.994 79.707,23.994 C81.405,23.994 82.84,25.405 82.84,27.533 L82.84,27.581 C82.84,29.733 81.405,31.12 79.707,31.12 Z M89.225,19.738 L93.051,19.738 L93.051,16.51 L89.225,16.51 L89.225,19.738 Z M89.321,33.966 L92.956,33.966 L92.956,21.149 L89.321,21.149 L89.321,33.966 Z M102.114,37.84 C104.601,37.84 106.443,37.313 107.638,36.118 C108.714,35.042 109.264,33.368 109.264,31.072 L109.264,21.148 L105.629,21.148 L105.629,22.822 C104.649,21.746 103.477,20.909 101.493,20.909 C98.551,20.909 95.801,23.061 95.801,26.887 L95.801,26.935 C95.801,30.737 98.503,32.914 101.493,32.914 C103.429,32.914 104.601,32.124 105.677,30.833 L105.677,31.455 C105.677,33.75 104.506,34.946 102.019,34.946 C100.321,34.946 99.005,34.516 97.69,33.774 L96.447,36.5 C98.073,37.361 100.034,37.84 102.114,37.84 Z M102.545,29.9 C100.775,29.9 99.436,28.705 99.436,26.935 L99.436,26.887 C99.436,25.141 100.775,23.922 102.545,23.922 C104.314,23.922 105.677,25.141 105.677,26.887 L105.677,26.935 C105.677,28.681 104.314,29.9 102.545,29.9 Z M4.189,26.553 C4.476,24.903 5.456,23.826 6.963,23.826 C8.494,23.826 9.45,24.926 9.665,26.553 L4.189,26.553 Z M21.957,34.253 C24.515,34.253 25.95,33.272 27.193,31.909 L25.065,29.757 C24.18,30.594 23.344,31.12 22.124,31.12 C20.139,31.12 18.872,29.542 18.872,27.581 L18.872,27.533 C18.872,25.644 20.163,24.042 21.98,24.042 C23.272,24.042 24.085,24.592 24.898,25.452 L27.122,23.061 C25.926,21.722 24.42,20.909 22.004,20.909 C18.083,20.909 15.285,23.922 15.285,27.581 L15.285,27.629 C15.285,31.287 18.106,34.253 21.957,34.253 Z M29.561,33.966 L33.196,33.966 L33.196,26.816 C33.196,25.094 34.08,24.209 35.467,24.209 C36.854,24.209 37.667,25.094 37.667,26.816 L37.667,33.966 L41.302,33.966 L41.302,25.668 C41.302,22.726 39.7,20.909 36.95,20.909 C35.109,20.909 34.033,21.89 33.196,22.966 L33.196,16.509 L29.561,16.509 L29.561,33.966 Z" id="Fill-1" fill="#F75656"></path>
    </g>
</svg>