<?xml version="1.0" standalone="no"?>
<!DOCTYPE svg PUBLIC "-//W3C//DTD SVG 20010904//EN"
 "http://www.w3.org/TR/2001/REC-SVG-20010904/DTD/svg10.dtd">
<svg version="1.0" xmlns="http://www.w3.org/2000/svg"
 width="1120.000000pt" height="1120.000000pt" viewBox="0 0 1120.000000 1120.000000"
 preserveAspectRatio="xMidYMid meet">
<metadata>
Created by potrace 1.11, written by Peter Selinger 2001-2013
</metadata>
<g transform="translate(0.000000,1120.000000) scale(0.100000,-0.100000)"
fill="#000000" stroke="none">
<path d="M5098 11195 c-2 -2 -55 -6 -118 -9 -63 -4 -131 -8 -150 -11 -19 -2
-66 -6 -105 -10 -98 -9 -132 -12 -225 -25 -45 -6 -96 -13 -114 -15 -39 -5
-151 -23 -191 -31 -16 -3 -64 -12 -105 -20 -41 -7 -88 -16 -105 -20 -16 -3
-39 -7 -50 -9 -11 -1 -40 -8 -65 -15 -25 -7 -54 -14 -65 -16 -40 -8 -190 -45
-205 -51 -8 -3 -22 -7 -30 -8 -25 -4 -162 -43 -208 -59 -23 -8 -45 -15 -47
-15 -7 1 -165 -50 -190 -61 -16 -7 -51 -19 -75 -25 -3 -1 -12 -5 -20 -8 -31
-13 -205 -78 -215 -81 -5 -1 -32 -12 -59 -24 -27 -12 -50 -22 -53 -22 -2 0
-23 -8 -46 -19 -23 -10 -76 -33 -117 -51 -41 -18 -81 -37 -88 -42 -6 -6 -12
-8 -12 -5 0 14 -601 -304 -641 -339 -8 -8 -19 -14 -24 -14 -4 0 -31 -15 -59
-33 -28 -19 -75 -49 -103 -67 -29 -18 -53 -35 -53 -37 0 -2 25 -47 55 -99 30
-53 55 -100 55 -105 0 -5 5 -9 10 -9 6 0 10 -5 10 -10 0 -6 18 -40 40 -76 22
-36 40 -67 40 -69 0 -2 18 -33 40 -69 22 -36 40 -70 40 -76 0 -5 5 -10 10 -10
6 0 10 -4 10 -9 0 -6 17 -38 37 -73 21 -35 38 -65 38 -68 0 -3 13 -24 28 -47
15 -24 27 -45 27 -48 0 -3 16 -31 35 -61 19 -30 35 -57 35 -60 0 -3 8 -16 19
-29 l18 -24 84 55 c46 30 100 64 119 75 19 11 52 30 72 42 278 165 635 336
928 443 52 19 109 41 125 47 17 6 32 12 35 12 3 1 70 22 150 47 131 41 197 61
300 88 97 26 149 37 154 32 3 -3 6 0 6 7 0 7 4 10 8 7 4 -2 39 2 77 11 93 20
100 21 100 23 0 1 16 3 35 5 19 3 46 7 60 10 14 3 41 8 60 11 112 17 147 23
195 29 22 3 51 7 65 10 22 4 83 10 200 20 164 14 327 20 570 19 234 -1 455 -8
455 -14 0 -1 20 -3 45 -5 114 -8 322 -32 353 -41 10 -3 37 -7 60 -10 23 -2 53
-5 67 -8 14 -3 41 -8 60 -11 19 -3 44 -8 55 -10 11 -2 54 -11 95 -20 41 -9 84
-18 95 -20 40 -7 75 -16 187 -45 62 -17 123 -33 134 -35 71 -16 437 -139 549
-185 17 -7 39 -16 50 -20 11 -4 36 -15 55 -23 19 -8 53 -22 75 -31 74 -31 159
-70 287 -133 69 -35 131 -63 137 -63 6 0 11 -4 11 -10 0 -5 4 -10 9 -10 5 0
41 -18 80 -40 118 -67 140 -79 179 -101 20 -12 48 -29 62 -39 14 -9 33 -20 43
-23 9 -4 17 -11 17 -17 0 -5 6 -10 13 -10 6 0 35 -16 62 -35 l50 -34 22 27
c13 15 23 30 23 34 0 3 27 52 60 108 33 56 60 104 60 106 0 3 8 17 19 32 23
34 243 414 272 472 8 14 24 40 37 58 14 17 21 32 17 32 -5 0 -2 8 6 18 8 9 20
27 27 40 11 19 10 23 -5 29 -10 3 -36 19 -58 33 -22 15 -44 28 -49 28 -5 0
-12 4 -15 9 -6 9 -139 93 -146 93 -3 0 -34 18 -70 40 -36 22 -69 40 -74 40 -5
0 -14 7 -21 15 -6 8 -15 14 -18 13 -10 -2 -46 14 -52 23 -10 14 -437 218 -595
284 -145 61 -304 123 -330 129 -5 2 -23 8 -40 15 -41 17 -175 62 -197 66 -10
2 -22 6 -26 9 -11 6 -279 87 -307 92 -11 2 -47 11 -80 20 -33 9 -67 18 -75 18
-9 1 -21 5 -28 10 -6 4 -12 5 -12 2 0 -2 -15 0 -32 5 -31 10 -46 13 -93 23
-11 2 -31 7 -45 10 -14 3 -36 8 -50 10 -41 8 -133 26 -160 32 -14 3 -38 7 -55
9 -16 2 -56 8 -88 15 -31 6 -61 8 -66 5 -5 -3 -12 -1 -16 4 -3 5 -13 9 -23 9
-16 -1 -52 4 -142 17 -19 3 -53 7 -75 9 -22 3 -67 7 -100 11 -33 3 -82 8 -110
10 -27 2 -50 4 -50 5 0 8 -869 23 -877 15z"/>
<path d="M5178 9135 c-2 -2 -48 -6 -103 -9 -55 -4 -113 -8 -130 -10 -16 -2
-61 -7 -100 -10 -38 -3 -81 -8 -95 -11 -14 -3 -43 -7 -65 -10 -22 -3 -51 -7
-65 -10 -14 -2 -41 -6 -60 -9 -19 -2 -42 -7 -50 -10 -8 -3 -33 -8 -55 -11 -22
-3 -57 -10 -78 -16 -20 -5 -42 -7 -47 -4 -6 3 -10 2 -10 -3 0 -5 -6 -9 -12
-10 -58 -3 -471 -120 -543 -152 -11 -5 -38 -16 -60 -23 -94 -33 -191 -70 -210
-80 -11 -6 -22 -11 -25 -12 -15 -1 -206 -91 -212 -100 -4 -5 -8 -7 -8 -3 0 7
-271 -129 -280 -141 -3 -3 -18 -13 -35 -21 -80 -40 -324 -195 -337 -214 -4 -5
2 -22 13 -37 10 -15 19 -29 19 -32 0 -2 37 -67 81 -143 45 -77 95 -161 111
-189 16 -27 36 -65 44 -82 8 -18 19 -33 24 -33 6 0 10 -7 10 -15 0 -8 22 -50
48 -93 27 -42 51 -82 53 -87 2 -6 33 -60 68 -121 53 -92 67 -111 83 -106 11 2
22 11 25 18 3 8 9 14 14 14 5 0 31 15 58 34 64 45 331 201 359 210 12 4 22 12
22 18 0 6 3 9 6 5 4 -3 32 7 63 23 107 55 361 163 361 153 0 -3 6 -1 13 4 15
13 334 114 372 118 8 1 61 14 85 20 32 9 60 16 85 20 17 3 41 8 55 11 14 2 50
9 80 14 30 6 64 12 75 14 11 2 49 7 85 11 36 4 79 9 95 11 142 18 607 24 730
9 33 -4 83 -8 110 -10 28 -2 64 -6 80 -9 17 -3 48 -7 70 -10 107 -15 263 -45
360 -69 11 -3 47 -12 80 -20 55 -14 149 -41 185 -55 8 -3 18 -6 23 -7 4 -2 8
-3 10 -5 1 -1 9 -3 17 -5 31 -7 169 -59 285 -108 220 -92 460 -222 660 -356
104 -70 92 -74 159 52 22 39 42 74 46 77 3 3 15 23 26 45 11 22 27 51 35 65
15 24 185 316 226 390 38 67 83 145 93 160 22 34 50 90 50 100 0 5 -4 10 -9
10 -5 0 -45 25 -90 55 -45 30 -83 55 -85 55 -2 0 -48 27 -103 60 -54 33 -103
60 -110 60 -6 0 -13 4 -15 8 -4 11 -381 197 -438 217 -3 1 -16 6 -30 12 -125
53 -386 148 -435 158 -11 3 -29 9 -40 14 -27 13 -268 78 -320 86 -11 2 -20 4
-20 5 0 1 -9 3 -20 5 -11 3 -42 9 -70 15 -48 11 -75 16 -120 24 -11 2 -36 6
-55 10 -65 12 -95 16 -140 22 -25 3 -53 7 -62 10 -9 3 -42 7 -73 9 -30 2 -84
7 -118 11 -34 3 -80 8 -102 10 -47 5 -613 13 -617 9z"/>
<path d="M5257 7074 c-1 -1 -40 -5 -87 -8 -47 -4 -100 -9 -117 -11 -18 -3 -50
-7 -70 -10 -21 -3 -45 -7 -53 -10 -8 -2 -37 -6 -64 -10 -27 -3 -52 -8 -56 -10
-7 -4 -51 -14 -86 -19 -11 -2 -25 -6 -31 -9 -5 -3 -25 -9 -44 -12 -19 -3 -67
-17 -106 -31 -40 -14 -81 -27 -90 -29 -22 -5 -214 -80 -240 -94 -10 -5 -63
-31 -118 -58 -55 -26 -101 -51 -103 -55 -2 -5 -8 -8 -13 -8 -6 0 -35 -16 -65
-35 -30 -19 -56 -35 -58 -35 -4 0 -152 -100 -192 -130 -36 -27 -36 -38 6 -106
22 -36 40 -67 40 -69 0 -1 46 -80 102 -176 56 -96 111 -192 123 -214 27 -52
61 -107 75 -122 6 -7 9 -13 6 -13 -4 0 150 -268 160 -279 2 -2 37 24 78 58 41
33 79 61 85 61 6 0 11 5 11 10 0 6 7 10 15 10 8 0 15 5 15 10 0 6 5 10 11 10
6 0 25 11 42 24 86 66 396 199 517 222 14 3 41 9 60 14 19 5 52 12 74 16 21 3
48 8 60 10 132 26 493 21 606 -9 8 -2 38 -8 65 -12 57 -10 63 -12 70 -15 3 -1
8 -3 13 -4 4 -1 34 -10 67 -20 33 -10 65 -19 70 -21 53 -12 290 -123 355 -165
14 -9 45 -30 70 -46 58 -37 124 -87 128 -96 2 -5 8 -8 12 -8 5 0 21 -12 35
-26 29 -29 48 -22 59 21 4 14 11 25 16 25 6 0 10 4 10 10 0 8 150 274 181 320
5 8 15 27 22 43 6 15 15 27 19 27 4 0 8 6 8 14 0 8 6 21 13 28 6 8 19 27 28
43 9 17 46 81 82 144 37 62 67 115 67 117 0 2 18 33 40 69 l39 64 -25 18 c-13
10 -41 31 -62 46 -20 16 -70 49 -112 75 -41 25 -77 49 -80 52 -12 12 -266 143
-335 172 -102 42 -123 50 -165 64 -25 8 -54 19 -65 24 -31 14 -185 59 -185 54
0 -3 -8 0 -18 5 -11 6 -30 12 -43 14 -13 3 -67 14 -119 25 -52 11 -120 23
-150 27 -30 3 -66 8 -80 10 -94 14 -512 29 -523 19z"/>
<path d="M3849 4986 c-2 -2 -33 -7 -69 -11 -36 -4 -74 -8 -85 -9 -42 -5 -113
-19 -195 -38 -47 -11 -92 -21 -100 -23 -8 -2 -28 -8 -45 -15 -16 -6 -32 -12
-35 -12 -3 0 -9 -2 -15 -4 -5 -2 -39 -13 -75 -24 -63 -21 -87 -31 -195 -80
-27 -13 -53 -24 -57 -24 -3 -1 -9 -4 -13 -8 -4 -4 -32 -19 -63 -34 -32 -15
-59 -30 -62 -33 -3 -3 -15 -12 -27 -18 -13 -7 -33 -19 -45 -25 -13 -7 -25 -15
-28 -18 -3 -3 -32 -23 -64 -45 -271 -182 -530 -458 -701 -745 -57 -97 -165
-309 -165 -325 0 -4 -7 -21 -15 -38 -39 -86 -105 -321 -130 -467 -12 -72 -14
-86 -21 -150 -10 -83 -10 -438 -1 -510 12 -96 15 -114 22 -150 4 -19 8 -44 9
-55 1 -11 5 -26 9 -33 5 -6 6 -12 3 -12 -2 0 2 -24 10 -53 8 -28 17 -63 20
-77 8 -36 10 -43 17 -60 3 -8 15 -46 28 -85 12 -38 26 -79 32 -90 6 -11 12
-25 13 -32 3 -16 127 -268 159 -322 151 -254 381 -512 605 -680 74 -55 88 -66
113 -86 24 -19 52 -36 70 -41 9 -4 17 -10 17 -15 0 -5 7 -9 15 -9 8 0 15 -4
15 -10 0 -5 5 -10 10 -10 6 0 41 -17 78 -38 73 -41 240 -120 281 -132 14 -5
51 -18 81 -30 30 -12 66 -23 80 -26 14 -3 44 -11 67 -19 41 -14 61 -19 121
-30 15 -3 47 -10 72 -15 198 -42 229 -42 2065 -43 1493 0 1790 3 1885 17 14 2
50 7 80 11 30 3 82 13 115 20 33 8 74 17 92 20 18 3 44 10 58 15 14 5 36 12
48 14 27 5 142 45 215 75 28 11 52 17 52 13 0 -4 4 -2 8 4 4 6 45 28 92 49 47
22 87 42 90 46 3 3 15 9 28 13 12 4 22 12 22 17 0 5 9 9 20 9 11 0 20 5 20 11
0 5 4 8 9 5 5 -4 11 -3 13 2 1 4 44 35 93 67 143 95 240 177 393 332 78 80
142 148 142 153 0 4 8 16 18 28 10 11 27 33 38 47 10 15 24 32 29 39 18 20
142 219 175 281 101 193 207 493 234 670 4 22 9 54 12 70 38 210 37 582 -1
758 -3 15 -7 45 -8 67 -1 22 -5 40 -9 40 -5 0 -8 10 -8 23 0 12 -7 44 -15 71
-8 26 -12 52 -9 57 3 5 0 9 -5 9 -6 0 -11 8 -11 19 0 10 -7 38 -16 62 -9 24
-17 49 -18 54 -7 41 -113 280 -158 358 -16 26 -28 52 -28 57 0 6 -4 10 -10 10
-5 0 -10 5 -10 11 0 16 -84 143 -169 254 -76 100 -278 310 -360 375 -24 19
-49 41 -56 48 -8 6 -18 12 -23 12 -6 0 -12 4 -14 8 -4 12 -146 112 -158 112
-6 0 -10 4 -10 9 0 5 -8 11 -17 15 -10 3 -40 19 -68 36 -27 17 -57 33 -65 37
-8 3 -22 12 -30 19 -8 7 -19 13 -25 14 -5 1 -43 17 -83 36 -41 19 -79 34 -86
34 -7 0 -16 4 -21 9 -11 10 -214 80 -254 87 -14 3 -28 7 -31 9 -4 2 -22 7 -41
10 -19 3 -50 10 -69 15 -19 4 -66 13 -105 19 -38 6 -90 14 -115 18 -47 7
-3673 16 -3681 9z m3601 -1189 c119 -19 278 -73 379 -129 31 -17 65 -36 76
-42 10 -6 24 -15 31 -21 6 -5 22 -17 34 -25 50 -32 159 -131 206 -185 27 -32
55 -63 62 -70 6 -8 12 -17 12 -21 0 -4 7 -16 17 -26 51 -56 164 -300 179 -388
3 -14 9 -42 15 -63 28 -106 30 -332 3 -472 -4 -22 -7 -48 -8 -57 0 -10 -3 -18
-7 -18 -3 0 -9 -15 -12 -32 -3 -18 -11 -46 -18 -63 -7 -16 -13 -32 -14 -35
-66 -179 -183 -347 -336 -484 -67 -60 -206 -153 -279 -186 -30 -14 -58 -29
-62 -35 -4 -5 -8 -7 -8 -3 0 4 -29 -4 -65 -17 -36 -13 -69 -24 -73 -25 -51
-15 -143 -31 -199 -36 -75 -6 -3402 -6 -3468 0 -27 2 -52 5 -55 6 -3 2 -9 2
-13 1 -15 -2 -169 40 -231 63 -88 34 -194 85 -201 97 -4 6 -17 14 -28 18 -29
11 -131 89 -187 143 -55 52 -134 145 -181 213 -38 54 -118 205 -124 233 -2 9
-13 41 -24 71 -11 29 -20 56 -19 60 1 3 -4 24 -10 46 -26 90 -36 320 -20 430
5 28 10 64 13 81 6 43 55 197 67 212 6 6 7 12 2 12 -4 0 -3 5 4 12 7 7 12 18
12 26 0 7 7 20 15 29 8 8 13 19 10 24 -4 5 -1 9 4 9 6 0 11 5 11 11 0 32 178
264 245 321 6 4 30 25 54 46 57 48 182 132 199 132 6 0 12 5 12 10 0 6 3 9 8
8 4 -1 27 8 52 20 73 34 176 71 222 77 23 4 46 9 50 11 4 2 26 7 50 10 24 4
45 8 47 10 8 7 3506 -2 3551 -9z"/>
<path d="M3990 3148 c-241 -41 -424 -222 -471 -463 -21 -106 -2 -251 43 -340
12 -22 19 -40 17 -41 -8 -2 76 -101 125 -147 42 -39 156 -108 188 -113 5 -1 9
-2 11 -4 2 -2 28 -8 72 -17 36 -8 929 -8 967 0 106 21 216 81 292 161 60 61
123 154 130 192 2 10 9 30 14 44 19 51 36 227 22 235 -3 2 -7 17 -8 34 -6 83
-80 221 -161 301 -43 44 -157 120 -178 120 -6 0 -23 7 -39 15 -17 8 -52 18
-79 21 -69 10 -891 11 -945 2z"/>
<path d="M6417 3154 c-1 -1 -18 -3 -37 -5 -19 -2 -39 -5 -45 -8 -5 -3 -19 -7
-30 -9 -11 -1 -54 -19 -95 -40 -104 -51 -203 -151 -254 -253 -38 -79 -40 -85
-55 -181 -31 -184 55 -395 209 -519 75 -60 175 -107 238 -112 12 -1 22 -4 22
-8 0 -9 932 -8 950 1 8 5 29 10 45 13 42 7 142 55 190 91 37 28 115 104 115
112 0 2 13 23 29 46 33 50 68 132 78 186 4 21 7 78 7 127 0 129 -37 236 -118
340 -41 52 -108 115 -123 115 -7 0 -13 3 -13 8 0 6 -63 41 -115 63 -70 29
-123 32 -553 33 -244 1 -444 1 -445 0z"/>
</g>
</svg>
